# xmcd
#
# Track frame offsets:
# 150
# 61355
# 137883
# 205783
#
# Disc length: 3351 seconds
#
#
# Revision: 2
# Processed by: cddbd v1.5.2PL0 Copyright (c) Steve Scherf et al.
# Submitted via: FreeRIP 2.96 
#
DISCID=370d1504
DTITLE=Ritchie Blackmore's Rainbow - Live In Germany [CD2] (1976)
DYEAR=1976
DGENRE=Rock
TTITLE0=Man On The Silver Mountain
TTITLE1=Stargazer
TTITLE2=Still I'm Sad
TTITLE3=Do You Close Your Eyes
EXTD=
EXTT0=
EXTT1=
EXTT2=
EXTT3=
PLAYORDER=
